<svg width="172" height="53" viewBox="0 0 172 53" fill="none" xmlns="http://www.w3.org/2000/svg">
<path d="M39.4609 16.7217L41.6436 12.0155C41.6436 12.0155 47.2443 14.0216 49.7991 20.6147C49.7991 20.6147 52.7854 13.6475 58.4704 12.2649L60.2513 16.7217C60.2513 16.7217 49.6552 20.1104 51.8677 34.1695L46.9863 34.1099C46.9863 34.1045 49.9429 20.0129 39.4609 16.7217Z" fill="#898A8D"/>
<path d="M63.8093 33.5409V11.5115H68.7452V20.9891L76.6129 11.4519L79.9416 15.1551L73.5671 22.1223L80.3434 30.0925L76.9552 33.8553L68.5716 23.0006V33.4812L63.8093 33.5409Z" fill="#FBAA19"/>
<path d="M90.4125 33.6647C90.3679 33.6593 90.3381 33.6593 90.3381 33.6593C87.9073 38.5174 84.2711 42.1934 80.119 44.2104C77.3113 45.5713 74.9996 46.4388 72.7127 47.0949C69.5825 47.9949 66.8938 48.4883 66.2786 48.5371C47.2742 50.0498 38.0075 39.0867 34.411 32.0327C33.1361 29.5332 32.1539 26.5349 31.9406 25.7596C29.2122 15.8754 31.7521 7.92683 32.6301 6.43038C35.7008 1.19279 41.356 3.60555 41.356 3.60555L38.831 0.34155C34.7236 -0.66693 32.7641 0.704819 31.3106 2.53743C30.5367 3.51338 29.8472 4.6303 29.6438 4.92308C27.9224 7.43344 24.8765 16.0326 24.8765 16.0326C24.8765 16.0326 23.6761 11.7222 22.3515 8.06238C21.3445 5.28635 20.2135 3.03625 19.767 2.41273C18.7352 0.970494 15.8034 0.905431 15.8034 0.905431C4.63685 0.780726 2.33011 8.75639 1.62073 11.0065C-0.447884 17.567 4.72118 25.2553 4.72118 25.2553L9.60252 21.3027C9.60252 21.3027 7.76209 20.4515 6.04073 18.4779C5.10811 17.4044 4.1755 16.0055 3.80345 14.1458C3.38179 12.0638 4.08621 10.1607 4.83527 8.75097C6.13498 6.30568 8.14903 5.04779 8.79888 4.79838C14.8261 2.47779 16.364 6.01831 16.3788 6.74485C16.5822 15.5013 15.853 18.2936 15.6347 19.1069C13.5661 26.6705 13.3379 28.0205 9.54795 29.4627C5.75797 30.905 0.990723 27.2018 0.990723 27.2018L2.53846 34.2286C7.96548 38.7776 11.7356 34.1473 12.5889 33.3503C17.6984 28.579 18.9039 12.8933 18.9039 12.8933L23.8398 26.5729L28.0316 16.7808C26.7715 27.8904 32.6897 36.4354 33.5479 37.6824C45.146 54.5012 65.5643 52.4246 67.37 52.1806C88.954 49.2257 93.8056 34.0985 93.8949 33.8111C92.7887 33.9413 91.608 33.925 90.4125 33.6647Z" fill="#898A8D"/>
<path d="M103.371 17.8654C102.94 16.4285 102.265 15.317 101.684 14.6339C101.059 13.9019 100.231 13.1266 99.1098 12.5519C96.4906 11.2126 92.6808 10.6976 88.4443 12.8284C82.3873 15.8701 82.7593 23.9976 82.7593 23.9976C82.933 28.0369 85.1206 30.5581 86.1475 31.4636C87.5117 32.6726 88.9751 33.345 90.4137 33.6594C91.6092 33.9197 92.7899 33.936 93.8961 33.8058C96.7138 33.4697 99.0205 32.1738 99.7547 31.5937C104.522 27.7929 104.552 21.8017 103.371 17.8654ZM98.8916 22.4306C98.6931 25.4886 97.3438 29.7014 92.9189 29.7123C92.0259 29.7123 87.3083 29.0779 87.9234 21.8667C88.0078 20.8962 88.6328 16.1195 92.9784 15.4038C97.3736 14.6773 99.095 19.3889 98.8916 22.4306Z" fill="#FBAA19"/>
<path d="M143.234 17.8654C142.803 16.4285 142.128 15.317 141.543 14.6339C140.918 13.9019 140.089 13.1266 138.968 12.5519C136.349 11.2126 132.544 10.6976 128.308 12.8284C122.251 15.8701 122.623 23.9976 122.623 23.9976C122.826 27.8038 124.984 30.5581 126.011 31.4636C131.408 36.2349 138.254 32.6781 139.618 31.5883C144.385 27.7929 144.415 21.8017 143.234 17.8654ZM138.76 22.4306C138.561 25.4886 137.212 29.7014 132.787 29.7123C131.894 29.7123 127.177 29.0779 127.792 21.8667C127.876 20.8962 128.501 16.1195 132.847 15.4038C137.237 14.6773 138.958 19.3889 138.76 22.4306Z" fill="#FBAA19"/>
<path d="M108.712 11.8259H113.767V29.0839H119.968V33.4161H108.772L108.712 11.8259Z" fill="#FBAA19"/>
<path d="M148.849 33.1008V11.8848C148.849 11.8848 154.707 12.0095 156.771 12.1992C158.84 12.389 163.607 13.1643 163.319 17.8489C163.061 21.9804 159.817 23.119 159.817 23.119L165.442 30.6501L161.593 34.2285L154.588 23.0594C154.588 23.0594 158.607 21.5521 158.264 17.914C158.175 16.9976 157.52 15.2464 153.725 15.5283V33.2255L148.849 33.1008Z" fill="#FBAA19"/>
<path d="M167.165 2.41235C165.042 2.41235 163.316 4.29376 163.316 6.61435C163.316 8.93494 165.037 10.8163 167.165 10.8163C169.288 10.8163 171.01 8.93494 171.01 6.61435C171.015 4.29376 169.293 2.41235 167.165 2.41235ZM167.165 10.0681C165.419 10.0681 164.005 8.52287 164.005 6.61435C164.005 4.71125 165.419 3.16058 167.165 3.16058C168.906 3.16058 170.32 4.70583 170.32 6.61435C170.325 8.52287 168.911 10.0681 167.165 10.0681Z" fill="#FBAA19"/>
<path d="M168.604 7.30341C168.589 6.63109 168.088 6.49012 168.088 6.49012C168.088 6.49012 168.703 6.33289 168.663 5.54671C168.614 4.49485 167.631 4.41895 167.631 4.41895H165.622V8.49624H166.198V6.79917C166.198 6.79917 166.828 6.81544 167.463 6.79917C167.463 6.79917 168.023 6.78291 168.093 7.48776C168.142 7.97031 168.152 8.43117 168.152 8.43117H168.782C168.629 8.35527 168.619 7.98115 168.604 7.30341ZM167.567 6.30036C167.264 6.31662 166.188 6.30036 166.188 6.30036V4.92319H167.453C167.453 4.92319 168.083 4.97198 168.083 5.48707C168.083 6.00215 167.87 6.28409 167.567 6.30036Z" fill="#FBAA19"/>
</svg>
