<svg xmlns="http://www.w3.org/2000/svg" viewBox="0 0 438.99874 271.12333">
  <g id="Layer_2" data-name="Layer 2">
    <g id="SPEC_HELLO" data-name="SPEC HELLO">
      <g>
        <path d="M437.92919,169.53751a8.06706,8.06706,0,0,0-6.92523-2.83408,4.40812,4.40812,0,0,0-3.54479,2.42715l-.046.09785-.03889.10079c-6.03535,15.75208-13.48256,24.68139-22.70037,27.17933,8.41552-17.33375,12.94111-39.67341,4.26349-52.53219-3.33022-4.93439-10.12609-10.45242-23.59065-8.71433-.4304.05562-.86272.11757-1.32.19019-22.82073,3.74575-43.37992,25.95716-49.00692,52.88936-9.12588,18.532-19.78047,29.85433-29.26074,31.07923l-.00314.00041a14.6803,14.6803,0,0,1-1.6736.11717,5.2626,5.2626,0,0,1-4.55325-1.84034c-2.0052-2.41036-4.662-9.60057-.25786-30.742,21.29741-14.43059,37.51625-34.88293,45.73551-57.70406,5.09749-14.06775,4.76448-26.198-.91187-33.27916a15.23725,15.23725,0,0,0-14.36364-5.58569c-4.71427.60825-9.6123,3.04678-14.15069,7.03861-17.54033,15.19864-28.65076,54.1082-32.61189,70.1244-2.254,9.006-3.86106,16.82356-4.91043,23.88441-3.733,8.33011-16.27766,33.65986-31.39145,35.61443a14.7008,14.7008,0,0,1-1.67694.11778,5.263,5.263,0,0,1-4.5533-1.83993c-2.00515-2.411-4.66223-9.60159-.25781-30.742,21.29782-14.4312,37.51666-34.88354,45.73546-57.70467,5.09794-14.06776,4.76494-26.198-.91187-33.27922a15.23673,15.23673,0,0,0-14.36359-5.58563c-4.71386.60825-9.6119,3.04678-14.15069,7.03881-17.54033,15.198-28.651,54.108-32.61149,70.1242-3.32982,13.30749-5.29779,24.22662-6.00936,33.34829-13.57014,22.38881-30.75022,26.22377-35.72613,26.86692a26.67047,26.67047,0,0,1-3.9979.224c-5.09667-.09471-8.98771-1.6419-11.564-4.59714-2.45026-2.812-3.62246-6.85509-3.44021-11.788,4.70926-.1728,8.66624-.47116,12.0391-.90707l.70251-.09361.375-.05522c.39034-.04263.77877-.08759,1.16553-.13775,15.86379-2.04818,28.51534-10.74512,34.69142-23.82034,4.4638-9.087,4.44575-18.839-.045-25.45116-4.03694-5.94281-11.24394-8.8214-20.26544-8.105-.767.05208-1.54683.129-2.31675.22827-19.59569,2.5296-37.498,19.41257-45.11335,42.30931-4.37206-.203-9.23925-.48082-14.98009-.85246l.35865-1.46829c1.23875-4.86527,2.44525-9.79142,3.72178-15.00841,5.2275-21.35577,10.63255-43.43954,18.14676-60.43144l.21184-.47849.02857-.52239a5.4683,5.4683,0,0,0-1.8685-4.32295c-2.82695-2.62832-8.27084-3.4919-12.18752-2.9859-3.00855.38823-5.19493,1.56463-6.323,3.402l-.10837.17594-.08142.19024c-8.10922,18.82678-13.4503,40.78584-18.6158,62.0209-1.52266,6.26-2.96364,12.18226-4.45919,17.95273-8.07327-.57867-16.30314-1.15946-24.08386-1.59679,2.79722-10.24539,5.20707-19.20241,7.37191-27.24487,5.248-19.49865,9.03925-33.58744,13.3884-47.642l.0798-.25467.03024-.26564a5.99971,5.99971,0,0,0-1.78425-5.05045c-2.48242-2.44839-6.75122-2.88319-9.91831-2.47438-3.97706.51313-7.223,2.29425-8.94523,4.89945-7.47826,8.96021-14.2044,10.911-19.80136,11.63348a85.96118,85.96118,0,0,1-10.13231.47682,105.91919,105.91919,0,0,0-13.02359.67839,58.75447,58.75447,0,0,0-7.26936,1.39436c-18.747,3.448-30.30318,12.56255-33.4205,26.34853-2.041,8.82893.42453,18.08835,6.24617,23.55581,4.63811,4.50875,12.1502,6.58863,20.095,5.56272A33.82606,33.82606,0,0,0,48.902,178.60286l.062-.07682.05628-.08127a7.03575,7.03575,0,0,0,.05082-7.85242,7.295,7.295,0,0,0-6.82338-3.76467,5.36,5.36,0,0,0-2.96723,1.40554A16.97962,16.97962,0,0,1,30.037,173.0508a8.53712,8.53712,0,0,1-7.21727-2.07149,6.59707,6.59707,0,0,1-1.7933-5.71833c.99713-8.2671,7.49823-11.13289,17.66468-13.07719l.12324-.02665a40.89369,40.89369,0,0,1,4.24417-.75921c3.13689-.40481,6.32243-.5327,9.69569-.66772,3.3817-.13563,6.87926-.27586,10.33444-.72143a36.76823,36.76823,0,0,0,14.39474-4.59715c-1.57945,5.57183-3.25664,11.66413-5.0945,18.34262-2.812,10.21409-5.98114,21.7262-9.75865,34.86908-1.52165.0844-3.04183.225-4.54.41842C31.14335,202.52,12.7048,222.52241,9.04511,239.54035c-2.46265,10.74846-1.12371,19.68742,3.76967,25.17126,4.62593,5.184,12.0832,7.24038,22.16631,6.11121.2706-.02964.53937-.06241.80684-.09679,24.29736-3.1369,34.6941-23.00172,43.1471-54.14289,7.06384.30048,14.47.6656,21.65605,1.02131l3.3191.16268c-2.238,8.00277-4.70254,16.23062-6.91031,23.59737-1.33793,4.46613-2.57153,8.58245-3.58363,12.08107l-.09259.32021-.01684.3326a5.10186,5.10186,0,0,0,1.66743,4.05944c2.77011,2.5603,7.87266,2.217,9.93894,1.95053,1.85419-.24,8.063-1.32635,10.08852-5.2537l.14528-.282.08-.30635c1.45105-5.53921,3.48224-12.67107,5.63267-20.222,1.43578-5.03974,2.91388-10.22835,4.32043-15.29731,5.93461.24086,11.18664.41346,15.91694.52137-.59045,10.406,2.1964,19.34244,7.98173,25.40495,6.11161,6.40385,15.304,9.36269,26.60132,8.5564,1.07481-.084,2.154-.19444,3.208-.33067,15.87911-2.0501,29.42908-9.91972,40.35539-23.41725,3.65311,12.54788,12.6782,15.35425,20.10589,15.3097a38.41429,38.41429,0,0,0,5.1344-.308c15.66267-2.02193,25.88894-13.51933,33.17782-25.40449,3.07156,14.78306,12.64609,18.13346,20.78029,18.0837a38.29856,38.29856,0,0,0,5.13338-.30736c12.137-1.56716,22.27164-8.8798,31.51969-22.857a21.53422,21.53422,0,0,0,6.93236,10.24473c5.14831,4.12392,12.37589,5.723,20.901,4.62279,12.2079-1.57641,22.89774-7.66284,31.79747-18.09948a35.20764,35.20764,0,0,0,7.688-.121h.00066c15.04345-1.94153,27.23137-14.14144,36.218-36.24974a4.81442,4.81442,0,0,0-.70337-4.85814M314.37665,135.38274c8.404-22.50133,12.99147-26.34094,14.98574-26.61665.82955,1.7484.20931,10.01358-6.88264,26.65655a105.59851,105.59851,0,0,1-17.324,27.24588c3.6523-12.13837,7.66825-23.06321,9.22095-27.28578m-59.09251,7.62819c8.40439-22.50137,12.99188-26.34139,14.98635-26.61664.82935,1.74774.20911,10.01357-6.88325,26.65589a105.58325,105.58325,0,0,1-17.3241,27.24654c3.65276-12.13842,7.66871-23.06321,9.221-27.28579m-65.95791,33.45368.22928-.02751c2.7604-.35611,4.67588.18625,5.69355,1.61166,1.74021,2.43539,1.117,7.5478-1.58921,13.02658-3.68906,7.53348-11.01632,12.2085-21.1899,13.52145-.37563.04849-.75485.09259-1.10211.1293-2.11306.16274-4.48312.26625-7.20155.31434,4.40483-14.23114,15.86273-27.37544,25.15994-28.57582M35.84381,252.75186l-.23535.02857c-2.3157.29877-3.96078-.06695-4.88944-1.08927-1.62638-1.79078-1.84034-5.97245-.59294-11.44617,2.49122-10.4417,12.11344-21.895,27.994-23.9453l.26139-.03211c-6.26974,23.99273-13.2783,35.289-22.53768,36.48428m350.2511-63.52713c-.08086.00774-.16233.01679-.24354.02772a9.88259,9.88259,0,0,0-7.459,6.21133,9.62491,9.62491,0,0,0-.04343,7.61788c-4.22319,4.79726-9.07779,7.83144-13.52606,8.40612-2.77319.35758-4.79978-.168-6.195-1.60878-2.85967-2.95226-3.60608-10.17772-2.05111-19.80434,2.60672-15.39475,14.86792-35.00324,26.77053-37.21142q.41516-.07744.81195-.1289c3.81124-.49174,5.34209.91521,6.16137,2.01627,3.88685,5.221,2.09,19.52115-4.22571,34.47412" fill="#f32735"/>
        <path d="M241.62074,55.10994V49.40713l2.37364,4.38384Zm0-10.14648,16.79918,31.00762,50.22454-27.88544L282.58965,0,241.62074,22.74806Zm0-24.63395V5.90564l3.245-1.8021,6.00769,11.08858Zm0-14.42387V20.32951L231.33823,26.037,229.508,27.05423l.9942,1.83467,11.11858,20.51823v5.70281l-15.76993,8.7559-11.524-21.2693V21.05913Zm0,16.84242L232.367,27.88569l9.25371,17.07777Zm-27.294,32.66636,3.4875-1.93713-3.4875-6.436Zm0-36.77384,8.97133-4.98037-5.179-9.55667-3.79238,2.10592ZM185.51625,9.11409l4.44534,8.2054-4.44534,2.46771Zm0,34.117,6.90485,12.74374L185.51625,59.81ZM214.32676,6.20946,185.51625,22.20509V38.78571l13.58946,25.08013,15.22105-8.45142V47.04127L203.49163,27.0435l-.9942-1.83487,1.83174-1.0162,9.99759-5.55185Zm0,14.84967V42.59654L205.355,26.0401Zm-83.97319,6.82656L180.57831,0l4.93794,9.11409V19.7872l-7.93369,4.40523-1.83007,1.0162.99253,1.83487L185.51625,43.231V59.81L156.40692,75.97108Zm55.16268-5.6806-6.90637,3.835,6.90637,12.74561Z" fill="#ffad00" fill-rule="evenodd"/>
        <path d="M281.4672,58.5857c-19.46886,9.66459-30.21752-7.95974-30.06111-22.5163.1552-14.64177,11.83965-31.40965,30.06111-21.72933V28.28631c-11.282-8.71707-19.11214-1.15947-19.11214,7.9878,0,7.30131,5.68182,17.24728,19.11214,8.68076Zm-56.43608,2.30077V11.9952h23.79222V23.33745H236.27152v7.7659h11.532V41.87572h-11.532v7.40291h12.55182V60.88647Zm-33.74951,0V11.9952H202.8678c11.29016,0,18.30439,3.94753,18.30439,16.884,0,11.95783-9.029,15.70672-19.09636,15.70672V60.88647Zm10.72873-37.866V33.658c6.80133.395,8.24338-1.53231,8.2673-5.25516.03231-4.92555-3.08941-5.5739-8.2673-5.38239M161.40422,45.48271c0-1.94471-2.58275,7.05226-3.87278,10.57753,10.72327,6.6426,22.77516,6.6208,27.72088-2.149,3.49043-6.19308,2.9061-15.06615-1.37023-19.4504-2.36905-2.43034-5.26589-3.91056-9.46348-4.743-3.42954-.68052-3.91668-2.79-3.00754-5.21784,1.08933-2.90524,5.795-2.75009,9.17331,1.36563q2.028-5.45895,4.058-10.91918c-9.2573-6.39965-20.08171-3.52987-24.89848,6.07384a14.032,14.032,0,0,0,9.39707,20.17643c4.5659.98075,8.47247,2.86579,6.28047,6.97332-1.91827,3.58909-8.56147,1.32822-14.01719-2.68733" fill="#e1251b" fill-rule="evenodd"/>
      </g>
    </g>
  </g>
</svg>
