<svg xmlns="http://www.w3.org/2000/svg" xmlns:xlink="http://www.w3.org/1999/xlink" viewBox="0 0 283.78772 352.41109">
  <defs>
    <linearGradient id="linear-gradient" x1="79.70223" y1="135.10723" x2="168.29803" y2="340.48841" gradientUnits="userSpaceOnUse">
      <stop offset="0" stop-color="#3d5825" stop-opacity="0"/>
      <stop offset="1" stop-color="#3d5825"/>
    </linearGradient>
  </defs>
  <g id="Layer_2" data-name="Layer 2">
    <g id="SPEC_GO_GREEN" data-name="SPEC GO GREEN">
      <g>
        <path d="M165.24577,58.17471v-6.02l2.50545,4.62792-2.50545,1.39209Zm0-10.71049L182.979,80.19549l53.01745-29.43612L208.49289,0,165.24577,24.01284V47.46422Zm0-26.004V6.23394l3.42493-1.90236,6.342,11.70522Zm0-15.22626V21.4602L154.39113,27.485l-1.93183,1.07334,1.04925,1.93672L165.24577,52.1547v6.02l-16.64716,9.243-12.165-22.45262V22.22991l28.81218-15.996Zm0,17.7789-9.76849,5.42339,9.76849,18.028V24.01284Zm-28.81218,34.483,3.68125-2.04474-3.68125-6.79388v8.83862Zm0-38.81857,9.47053-5.25747L140.43677,4.33158l-4.00318,2.22311ZM106.021,9.62078l4.692,8.6616-4.692,2.60511V9.62078Zm0,36.01413,7.2888,13.45292-7.2888,4.048V45.63491ZM136.43359,6.55469,106.021,23.44013V40.94272l14.34524,26.475,16.06735-8.92191V49.65722l-11.43775-21.11-1.04925-1.93689L125.88,25.53783l10.55356-5.86056V6.55469Zm0,15.67522V44.96513L126.963,27.48824ZM47.791,29.43623,100.80841,0,106.021,9.62078V20.88749l-8.3749,4.65034L95.71417,26.6103l1.04774,1.93689L106.021,45.63491V63.13583L75.29288,80.19549,47.791,29.43623Zm58.23-5.9961-7.29025,4.04811L106.021,40.94272Z" fill="#ffad00" fill-rule="evenodd"/>
        <path d="M207.30762,61.84378C186.7565,72.04578,175.41,53.441,175.57507,38.07542c.16339-15.45634,12.4981-33.15675,31.73255-22.938V29.85906C195.39887,20.65757,187.133,28.63527,187.133,38.2916c0,7.70689,5.99761,18.20594,20.17467,9.163v14.3892Zm-59.57413,2.42863V12.66246h25.115V24.63521H159.599v8.19788h12.173V44.20436H159.599v7.815h13.24955V64.27241Zm-35.6268,0V12.66246h12.23079c11.91828,0,19.32242,4.16663,19.32242,17.82291,0,12.62244-9.53152,16.57994-20.15872,16.57994v17.2071Zm11.32564-39.97206V35.52978c7.17976.41669,8.70163-1.61781,8.72732-5.54735.03362-5.19988-3.26153-5.88388-8.72732-5.68208ZM80.568,48.0121c0-2.05288-2.72643,7.44421-4.08814,11.16543,11.31929,7.01249,24.04171,6.98921,29.26244-2.26842,3.68442-6.53745,3.06776-15.904-1.44655-20.53188-2.50055-2.56536-5.55861-4.12816-9.98953-5.00686-3.62043-.71832-4.13468-2.94509-3.17513-5.50813,1.15027-3.0669,6.11774-2.90264,9.6837,1.44176q2.141-5.76219,4.28359-11.52632C95.32657,9.02162,83.9,12.05129,78.81559,22.189A14.81188,14.81188,0,0,0,88.7347,43.48744c4.82014,1.03573,8.94351,3.02531,6.63028,7.36168C93.34017,54.63763,86.327,52.25075,80.568,48.0121Z" fill="#e1251b" fill-rule="evenodd"/>
        <g>
          <path d="M278.5734,234.48539A112.132,112.132,0,0,0,166.56618,122.48215H5.21447V347.19636H278.5734Z" fill="#83ac40"/>
          <path d="M278.5734,234.48539A112.132,112.132,0,0,0,166.56618,122.48215H5.21447V347.19636H278.5734Z" fill="url(#linear-gradient)"/>
          <g>
            <path d="M69.7076,209.5574h29.606a36.50777,36.50777,0,0,1-1.7825,11.36784,26.71113,26.71113,0,0,1-5.61822,9.72106,25.80814,25.80814,0,0,1-9.17889,6.37294,31.99883,31.99883,0,0,1-12.43448,2.29359A30.44059,30.44059,0,0,1,55.9493,236.1476a28.49512,28.49512,0,0,1-9.81161-8.39183,36.73988,36.73988,0,0,1-5.6775-11.94743A51.71781,51.71781,0,0,1,40.4591,188.424a36.84468,36.84468,0,0,1,5.67769-11.89122,28.59337,28.59337,0,0,1,9.81341-8.39327,30.43216,30.43216,0,0,1,14.34928-3.15638,28.33392,28.33392,0,0,1,19.07941,6.91421,25.67036,25.67036,0,0,1,5.49786,6.71234,18.75848,18.75848,0,0,1,2.36661,7.20175l.09615.97122h10.52583l-.21235-1.25695a36.05671,36.05671,0,0,0-4.64339-12.927,33.59347,33.59347,0,0,0-19.48713-14.9679,46.06009,46.06009,0,0,0-13.223-1.86888,42.24443,42.24443,0,0,0-18.43223,3.82235A38.10628,38.10628,0,0,0,38.654,169.85644a44.14567,44.14567,0,0,0-7.871,14.79548,59.99961,59.99961,0,0,0-.00036,34.99143,43.48216,43.48216,0,0,0,7.87423,14.73386,38.39886,38.39886,0,0,0,13.20853,10.206,42.24293,42.24293,0,0,0,18.434,3.82362,44.16639,44.16639,0,0,0,9.42738-.99852,32.49562,32.49562,0,0,0,8.63093-3.20951,30.90283,30.90283,0,0,0,7.38482-5.67768,29.67969,29.67969,0,0,0,4.03832-5.315l.93887,13.495h8.04827V200.3373H69.7076Z" fill="#fff"/>
            <path d="M199.45505,184.65192a44.17312,44.17312,0,0,0-7.863-14.79621,38.27824,38.27824,0,0,0-13.14943-10.269A41.89955,41.89955,0,0,0,160.063,155.762a42.20315,42.20315,0,0,0-18.42843,3.82235,38.219,38.219,0,0,0-13.2248,10.27228,44.17777,44.17777,0,0,0-7.86212,14.7953,60.00951,60.00951,0,0,0-.00018,34.99143,43.51089,43.51089,0,0,0,7.86646,14.73494,38.52388,38.52388,0,0,0,13.21937,10.20541,42.21024,42.21024,0,0,0,18.4297,3.82308,41.90036,41.90036,0,0,0,18.37874-3.824,38.59016,38.59016,0,0,0,13.14709-10.20559,43.49474,43.49474,0,0,0,7.86627-14.73386,60.07918,60.07918,0,0,0,0-34.99143ZM160.063,239.31283a30.47425,30.47425,0,0,1-14.35885-3.16469,28.52687,28.52687,0,0,1-9.80149-8.39237,36.67983,36.67983,0,0,1-5.67623-11.948,51.682,51.682,0,0,1-.00127-27.38449,36.77138,36.77138,0,0,1,5.67678-11.8905,28.62719,28.62719,0,0,1,9.80221-8.39327,30.46519,30.46519,0,0,1,14.35885-3.15638,30.07607,30.07607,0,0,1,14.28783,3.15367,28.62594,28.62594,0,0,1,9.74619,8.39652,36.59128,36.59128,0,0,1,5.68057,11.89,51.54722,51.54722,0,0,1-.00054,27.38359,36.51621,36.51621,0,0,1-5.68166,11.94941,28.51873,28.51873,0,0,1-9.744,8.39382A30.07949,30.07949,0,0,1,160.063,239.31283Z" fill="#fff"/>
          </g>
          <g>
            <path d="M51.53525,292.062H68.1774a19.8842,19.8842,0,0,1-.96942,5.77491,14.5908,14.5908,0,0,1-3.05463,5.29961,14.04321,14.04321,0,0,1-5.00177,3.46506,17.49128,17.49128,0,0,1-6.80975,1.25423,16.6559,16.6559,0,0,1-7.85615-1.72213,15.565,15.565,0,0,1-5.35383-4.58683,20.06308,20.06308,0,0,1-3.12167-6.56938,28.43985,28.43985,0,0,1-.00073-15.14266,20.119,20.119,0,0,1,3.12313-6.53993,15.62818,15.62818,0,0,1,5.354-4.58484,16.604,16.604,0,0,1,7.85525-1.723,15.57514,15.57514,0,0,1,10.41686,3.76741,14.07553,14.07553,0,0,1,2.99264,3.66151,9.97529,9.97529,0,0,1,1.26834,3.85994l.09379.97448h6.91783l-.2147-1.25894a20.95091,20.95091,0,0,0-2.67674-7.43723,19.8,19.8,0,0,0-4.78345-5.36214,20,20,0,0,0-6.44523-3.26354,26.43757,26.43757,0,0,0-7.56934-1.06719,24.29332,24.29332,0,0,0-10.57572,2.19383,22.03412,22.03412,0,0,0-7.59771,5.90594,25.24068,25.24068,0,0,0-4.50134,8.47984,34.16467,34.16467,0,0,0-.00127,19.96606,24.77018,24.77018,0,0,0,4.50695,8.44423,22.12232,22.12232,0,0,0,7.59247,5.86871,24.17528,24.17528,0,0,0,10.57662,2.19618,25.04971,25.04971,0,0,0,5.39539-.57235,18.46644,18.46644,0,0,0,4.97774-1.85443,17.53888,17.53888,0,0,0,4.27145-3.28235,16.75721,16.75721,0,0,0,1.56057-1.88117l.458,6.63246h5.44111v-27.0225H51.53525Z" fill="#fff"/>
            <path d="M121.607,309.0882a20.80975,20.80975,0,0,1-.617-3.25867c-.13735-1.20833-.22645-2.39028-.26567-3.52469l-.04175-.95532c-.03379-.78272-.06361-1.47147-.09614-2.07238a24.9994,24.9994,0,0,0-.61628-4.2617,10.80937,10.80937,0,0,0-1.592-3.67669,9.14092,9.14092,0,0,0-2.91493-2.691,8.933,8.933,0,0,0-.98116-.495,11.26938,11.26938,0,0,0,4.47278-3.74374,14.89409,14.89409,0,0,0,2.58818-8.70033,14.1008,14.1008,0,0,0-1.3034-6.2054,12.29016,12.29016,0,0,0-3.53626-4.34935,15.03183,15.03183,0,0,0-5.09539-2.4754,22.52574,22.52574,0,0,0-6.00642-.79538H82.11642v51.07513h6.8177V291.24188l16.64594-.00108a7.75672,7.75672,0,0,1,4.53333.91628,7.05811,7.05811,0,0,1,2.50071,2.83161,13.1116,13.1116,0,0,1,1.19965,4.24381c.212,1.78792.35549,3.456.4417,5.15032.04825.49212.09145,1.06755.13265,1.76045.05332.68857.11133,1.39449.18127,2.11233a16.111,16.111,0,0,0,.36217,2.19112,6.88006,6.88006,0,0,0,.776,1.98925l.31392.5223h8.077l-1.50725-1.77509A5.54167,5.54167,0,0,1,121.607,309.0882Zm-32.6729-41.07194H105.26c3.25288,0,5.66937.76844,7.18241,2.28419a8.5334,8.5334,0,0,1,2.29359,6.36462,7.93168,7.93168,0,0,1-.75236,3.53157,8.17219,8.17219,0,0,1-2.02413,2.63679,9.11643,9.11643,0,0,1-3.00475,1.68455,11.48606,11.48606,0,0,1-3.69476.58862H88.93412Z" fill="#fff"/>
            <polygon points="136.338 289.665 163.602 289.665 163.602 283.539 136.338 283.539 136.338 268.016 165.451 268.016 165.451 261.883 129.522 261.883 129.522 312.958 165.794 312.958 165.794 306.834 136.338 306.834 136.338 289.665" fill="#fff"/>
            <polygon points="179.513 289.665 206.778 289.665 206.778 283.539 179.513 283.539 179.513 268.016 208.629 268.016 208.629 261.883 172.695 261.883 172.695 312.958 208.976 312.958 208.976 306.834 179.513 306.834 179.513 289.665" fill="#fff"/>
            <polygon points="248.805 261.883 248.805 301.084 221.812 261.883 214.96 261.883 214.96 312.958 221.775 312.958 221.775 273.764 248.771 312.958 255.612 312.958 255.612 261.883 248.805 261.883" fill="#fff"/>
          </g>
          <path d="M249.4554,151.59987a116.45651,116.45651,0,0,0-82.88921-34.33232H0V352.41109H283.78772V234.48546A116.4516,116.4516,0,0,0,249.4554,151.59987Zm29.118,82.88559v112.711H5.21448V122.48222H166.56619A112.13194,112.13194,0,0,1,278.57341,234.48546Z" fill="#fff"/>
        </g>
      </g>
    </g>
  </g>
</svg>
