<svg xmlns="http://www.w3.org/2000/svg" viewBox="0 0 438.99874 281.60523">
  <g id="Layer_2" data-name="Layer 2">
    <g id="SPEC_WALLI" data-name="SPEC WALLI">
      <g>
        <g>
          <path d="M243.02233,58.60054V52.53646l2.52384,4.6618-2.52384,1.40228Zm0-10.78889,17.86312,32.97086,53.40547-29.65159L286.58606,0,243.02233,24.18861v23.623Zm0-26.19437V6.27957l3.45-1.91628,6.38843,11.7909Zm0-15.33771V21.61728l-10.93411,6.06886-1.946,1.08119,1.05693,1.9509,11.82314,21.81823v6.06408l-16.769,9.31069-12.25406-22.617V22.39263L243.02233,6.27957Zm0,17.909-9.84,5.46309,9.84,18.15995v-23.623ZM213.99924,58.924l3.7082-2.05971-3.7082-6.84361V58.924Zm0-39.10272,9.53991-5.296L218.03178,4.36329l-4.03254,2.23938ZM183.364,9.6912l4.72643,8.725L183.364,21.04038V9.6912Zm0,36.27775,7.34214,13.5514L183.364,63.598V45.969Zm30.6352-39.36628-30.6352,17.009v17.6307l14.45024,26.66882,16.185-8.98721V50.0207L202.47777,28.75615l-1.05693-1.95107,1.94759-1.08032,10.63081-5.90346V6.60267Zm0,15.79V45.29427l-9.5399-17.60482ZM124.70782,29.6517,178.11329,0,183.364,9.6912V21.04038l-8.43615,4.68438-1.94607,1.08032,1.05536,1.95107L183.364,45.969V63.598l-30.953,17.18453L124.70782,29.6517Zm58.65622-6.04-7.34362,4.07774,7.34362,13.553Z" fill="#ffad00" fill-rule="evenodd"/>
          <path d="M285.39205,62.29647c-20.70149,10.27667-32.13109-8.46425-31.96482-23.94235.16459-15.56948,12.58958-33.39945,31.96482-23.1059V30.07763c-11.99592-9.26885-20.32233-1.23276-20.32233,8.49426,0,7.7633,6.04156,18.3392,20.32233,9.23V62.29647Zm-60.01014,2.44641V12.75515h25.29882V24.81554H237.3342v8.25788h12.2622V44.52793H237.3342v7.87216h13.34653V64.74288Zm-35.88764,0V12.75515h12.32037c12.00553,0,19.46386,4.19713,19.46386,17.95337,0,12.71483-9.60134,16.7013-20.30633,16.7013V64.74288Zm11.40855-40.26466V35.78985c7.23231.41975,8.76537-1.62965,8.79126-5.588.0338-5.23795-3.28547-5.927-8.79126-5.72368ZM157.72469,48.36354c0-2.06791-2.74638,7.4987-4.118,11.24716,11.40209,7.06382,24.21769,7.04037,29.47663-2.285,3.71139-6.58531,3.09016-16.02037-1.4572-20.68218-2.51879-2.58413-5.59924-4.15838-10.06265-5.0435-3.64692-.72358-4.16494-2.96665-3.19836-5.54845,1.15873-3.08935,6.16257-2.92389,9.75458,1.45231q2.15675-5.80437,4.31494-11.61069c-9.84331-6.80551-21.3535-3.75366-26.47515,6.45827a14.92033,14.92033,0,0,0,9.99178,21.45432c4.85537,1.04331,9.00892,3.04745,6.67881,7.41557C170.59038,55.03756,163.52586,52.63322,157.72469,48.36354Z" fill="#e1251b" fill-rule="evenodd"/>
        </g>
        <g>
          <path d="M383.90208,220.78832c-3.06753,4.40442-7.63909,10.30657-13.58,17.5505a183.58477,183.58477,0,0,1-19.41969,20.27257c-8.24507,7.37916-13.23274,8.93007-15.96583,8.93007a1.21288,1.21288,0,0,1-1.09177-.61814A4.46426,4.46426,0,0,1,333.146,264.23c0-1.24317.43294-4.2579,2.49623-11.57742q2.57544-9.14341,4.89785-16.51539L376.488,121.82137l-37.01967,3.17292-2.50827,7.54146,3.17986.09464a36.20359,36.20359,0,0,1,9.80912,1.29288c.54124.18418,1.98455.67393,1.98455,4.45212,0,1.35171-.31767,4.24895-1.85127,10.37712-1.25512,5.02435-3.05462,11.36454-5.337,18.83041l-27.186,86.41513c-3.2726,10.57736-3.65284,13.50961-3.65284,14.79451a13.88483,13.88483,0,0,0,2.9113,8.99443,10.04673,10.04673,0,0,0,8.1767,3.81824c5.46917,0,11.61834-2.324,18.28184-6.90759A115.69066,115.69066,0,0,0,361.811,258.59956c5.81972-6.189,11.01517-12.17971,15.44634-17.80218a148.65051,148.65051,0,0,0,8.9857-12.24641l.15536-.24772,1.70383-5.45447Z" fill="#20326e"/>
          <g>
            <path d="M402.6766,175.83109a10.55032,10.55032,0,0,0,7.8421-3.412,11.03447,11.03447,0,0,0,3.25073-7.8778,10.28937,10.28937,0,0,0-3.29143-8.11983,11.4647,11.4647,0,0,0-7.8014-2.7669,10.6755,10.6755,0,0,0-8.2988,3.41776,11.6772,11.6772,0,0,0-2.99292,8.07511,10.24135,10.24135,0,0,0,3.16407,7.69385A11.312,11.312,0,0,0,402.6766,175.83109Z" fill="#20326e"/>
            <path d="M434.8205,220.77551c-2.41868,3.42292-5.39569,7.3823-8.84943,11.76746-3.4557,4.3845-7.84313,9.54816-13.03766,15.34992A121.42924,121.42924,0,0,1,397.971,262.21653c-4.48593,3.53129-8.22435,5.32493-11.11269,5.32493-.53354,0-1.79061,0-1.79061-4.1237,0-.83.29754-3.32725,2.30119-10.74352,1.56855-5.81647,3.21188-11.37333,4.893-16.532l16.77309-53.03837-37.617,2.92731-2.55211,7.6488h7.8511c4.17141,0,5.77794.84807,6.361,1.34878a4.98316,4.98316,0,0,1,1.41047,3.99037,36.20265,36.20265,0,0,1-1.43831,8.87613c-1.01227,3.806-2.79778,10.05657-5.34387,18.7049l-7.80531,24.61926c-3.64871,11.13531-4.0728,14.78436-4.0728,16.56a14.796,14.796,0,0,0,3.30755,9.43648,11.45663,11.45663,0,0,0,9.40761,4.38939c5.21938,0,11.03509-2.33809,17.27776-6.95426a117.479,117.479,0,0,0,17.1332-15.68121c5.35694-5.93124,10.48858-12.16278,15.25137-18.52386q7.1065-9.50124,8.73884-11.7387l.21305-.29455,1.84123-5.52208Z" fill="#20326e"/>
          </g>
          <path d="M89.83126,163.524,39.116,276.80473H22.69131L10.93269,166.66828q-.71679-6.893-1.53273-11.25612A31.00408,31.00408,0,0,0,7.461,148.56649a10.04019,10.04019,0,0,0-2.69022-3.75133A13.66268,13.66268,0,0,0,0,142.63525l.8014-4.97155H44.20792l-.80107,4.97155q-6.48541,1.214-9.35991,3.64969a10.77146,10.77146,0,0,0-3.58338,6.79331,46.07629,46.07629,0,0,0-.44373,8.41926q.1269,4.86706.75337,11.054l7.46789,80.11581,51.196-115.00365H106.475L114.38866,252.771l36.40462-77.38184q6.6348-14.09212,7.60024-20.07738.99736-6.184-1.14658-8.92519-2.14673-2.73654-7.96762-3.75133l.8014-4.97155h39.95686l-.80124,4.97155a22.91858,22.91858,0,0,0-5.23229,2.28138,20.25422,20.25422,0,0,0-4.05593,3.44783,41.32934,41.32934,0,0,0-4.73669,6.74322q-2.7174,4.56246-6.594,12.27012l-54.5552,109.42693H99.56153Z" fill="#20326e"/>
          <path d="M276.80814,219.67381c-2.60182,3.73331-7.20512,9.61962-13.67766,17.49656a201.39625,201.39625,0,0,1-20.2506,21.34845c-6.61087,5.98583-12.01345,9.02264-16.05641,9.02264a1.2938,1.2938,0,0,1-1.04309-.50261,1.80789,1.80789,0,0,1-.54249-1.28794c0-2.43457.8111-6.89749,2.41471-13.26655,1.64317-6.55019,3.59212-13.30654,5.79861-20.11439l6.3829-20.78115c2.55217-8.18853,5.534-16.593,8.86446-24.97839l1.46116-3.66787-20.78219,2.33407-4.40925,13.93028c-.29271-4.52565-1.53289-8.18338-3.69771-10.89661-2.62674-3.27759-6.49338-4.94279-11.484-4.94279-6.4963,0-13.49435,2.65745-20.79792,7.896a96.11263,96.11263,0,0,0-19.762,19.3887,117.20866,117.20866,0,0,0-14.69385,24.5345c-3.804,8.64523-5.73306,16.33511-5.73306,22.85632a30.67791,30.67791,0,0,0,2.1569,11.699,19.93242,19.93242,0,0,0,6.5013,8.6074,16.58293,16.58293,0,0,0,10.1294,3.25578c9.2205,0,17.79616-4.19327,25.49087-12.4683a115.77824,115.77824,0,0,0,18.12387-25.84235l-2.73721,8.66015q-.52559,1.64547-1.50007,5.085-.99119,3.47564-1.56638,6.07357a24.77583,24.77583,0,0,0-.61532,5.27311,14.61576,14.61576,0,0,0,2.92341,9.09515,10.68611,10.68611,0,0,0,8.99247,4.1237c14.59937,0,34.94857-17.658,62.2142-53.98389l.232-.30654,1.85241-5.538Zm-107.49588,44.0645a22.94634,22.94634,0,0,1-2.28431-10.25785c0-5.917,1.7378-13.69839,5.17065-23.125A87.09517,87.09517,0,0,1,185.934,205.47258c5.37572-6.68059,11.05593-10.06764,16.88347-10.06764a9.46861,9.46861,0,0,1,8.11885,3.96037c2.10887,2.84851,3.177,6.58682,3.177,11.11366,0,6.56708-2.23542,14.49377-6.64283,23.55907a95.0448,95.0448,0,0,1-16.28822,23.89557c-6.0554,6.375-11.60537,9.60785-16.50328,9.60785C173.182,267.54146,170.99618,267.1482,169.31226,263.73831Z" fill="#20326e"/>
          <path d="M332.2552,220.78832c-3.06753,4.40442-7.63806,10.30657-13.579,17.5505a183.58987,183.58987,0,0,1-19.42077,20.27257c-8.245,7.37916-13.23269,8.93007-15.96573,8.93007a1.217,1.217,0,0,1-1.09285-.61814,4.46931,4.46931,0,0,1-.6977-2.69331c0-1.24317.43293-4.2579,2.49622-11.57742q2.57553-9.14341,4.89786-16.51539l35.94793-114.31583-37.02065,3.17292-2.50729,7.54146,3.18089.09464a36.17324,36.17324,0,0,1,9.807,1.29288c.54239.18418,1.98667.67393,1.98667,4.45212,0,1.35171-.31762,4.24895-1.85138,10.37712-1.256,5.02435-3.05467,11.36454-5.339,18.83041l-27.184,86.41513c-3.27466,10.57736-3.65279,13.50961-3.65279,14.79451a13.88937,13.88937,0,0,0,2.91022,8.99443,10.04935,10.04935,0,0,0,8.1767,3.81824c5.46813,0,11.61834-2.324,18.28178-6.90759a115.59354,115.59354,0,0,0,18.5338-16.09808c5.82075-6.189,11.01512-12.17971,15.44835-17.80218a148.38467,148.38467,0,0,0,8.98467-12.24641l.15433-.24772,1.70486-5.45447Z" fill="#20326e"/>
        </g>
      </g>
    </g>
  </g>
</svg>
