<svg xmlns="http://www.w3.org/2000/svg" viewBox="0 0 405.59432 314.49599">
  <g id="Layer_2" data-name="Layer 2">
    <g id="SPEC_CEO" data-name="SPEC CEO">
      <g>
        <g>
          <path d="M215.561,64.56569V57.88432l2.78069,5.13635-2.78069,1.545Zm0-11.88713,19.68141,36.32708,58.84186-32.66993L263.55922,0,215.561,26.65085V52.67856Zm0-28.86078V6.91879l3.80118-2.11135L226.401,17.79858Zm0-16.899v16.899L203.51392,30.5044l-2.14406,1.19125,1.16453,2.1495L215.561,57.88432v6.68137L197.085,74.82415,183.5836,49.90493V24.67205L215.561,6.91879Zm0,19.73206L204.7194,32.67,215.561,52.67856V26.65085ZM183.5836,64.92209l4.08566-2.26937-4.08566-7.54024v9.80961Zm0-43.08311,10.511-5.835-6.068-11.1965-4.443,2.46734ZM149.82987,10.6777l5.20756,9.61315-5.20756,2.8913V10.6777Zm0,39.97059,8.08959,14.93083-8.08959,4.49271V50.64829ZM183.5836,7.27478,149.82987,26.01522v19.4254l15.92125,29.38353,17.83248-9.90206V55.11248L170.88932,31.68333l-1.16459-2.14967,2.14591-1.19029,11.713-6.50439V7.27478Zm0,17.39727V49.90493l-10.511-19.39688ZM85.20284,32.67,144.04469,0l5.78518,10.6777V23.18215L140.535,28.34337l-2.14417,1.19029,1.16285,2.14967,10.27621,18.965V70.07183L115.72608,89.00564,85.20284,32.67Zm64.627-6.65482-8.09108,4.49283,8.09108,14.93257Z" fill="#ffc20e" fill-rule="evenodd"/>
          <path d="M262.24373,68.63784C239.4349,79.96061,226.8419,59.312,227.02509,42.25832,227.20644,25.104,240.89622,5.459,262.24373,16.80039V33.13933c-13.217-10.21236-22.391-1.35824-22.391,9.35892,0,8.55356,6.65649,20.206,22.391,10.16961v15.97Zm-66.11885,2.69543V14.05354H223.999V27.34159H209.2939v9.09848h13.51035V49.06058H209.2939v8.67349H223.999v13.5992Zm-39.5407,0V14.05354h13.57445c13.22761,0,21.44514,4.62437,21.44514,19.7809,0,14.00912-10.57863,18.40138-22.37332,18.40138V71.33327ZM169.154,26.96994V39.433c7.96852.46247,9.65757-1.79554,9.68609-6.15677.03731-5.77113-3.61984-6.53028-9.68609-6.30631ZM121.58067,53.28662c0-2.2784-3.02595,8.262-4.53725,12.392,12.56281,7.78287,26.68289,7.757,32.47716-2.51762,4.08919-7.25564,3.40472-17.65114-1.60547-22.78748-2.77525-2.84718-6.16927-4.58168-11.087-5.5569-4.01816-.79724-4.58891-3.26864-3.52394-6.11325,1.27663-3.40382,6.78983-3.22152,10.74754,1.60015q2.37618-6.39521,4.75417-12.79258c-10.8453-7.49827-23.52714-4.13576-29.17014,7.11568A16.43907,16.43907,0,0,0,130.64459,48.2649c5.34968,1.14951,9.926,3.35766,7.35866,8.17042C135.756,60.64,127.97236,57.99093,121.58067,53.28662Z" fill="#ed1c24" fill-rule="evenodd"/>
        </g>
        <g>
          <path d="M378.5964,166.13353c-15.84639-16.093-37.795-24.95467-61.8018-24.95467s-46.03492,8.9435-62.02858,25.18259a84.69856,84.69856,0,0,0-24.18566,59.8932v.45583c0,22.78545,8.50878,43.97553,23.95894,59.66528,15.84753,16.09314,37.795,24.95485,61.8018,24.95485,24.00563,0,46.03486-8.94356,62.02738-25.18277a84.69439,84.69439,0,0,0,24.1868-59.89319v-.45584C402.55528,203.01336,394.04656,181.82334,378.5964,166.13353ZM373.18664,226.825c0,33.44593-24.24288,58.66709-56.39264,58.66709a55.35043,55.35043,0,0,1-40.90163-17.46161C265.6106,257.04628,259.949,242.25182,259.949,226.3692v-.45583c0-33.57681,24.24294-58.89621,56.3915-58.89621a55.21984,55.21984,0,0,1,40.90743,17.582,60.90259,60.90259,0,0,1,15.93871,41.77Z" fill="#c70016"/>
          <path d="M316.7946,143.84416c48.94632,0,83.09586,37.10691,83.09586,81.95471v.456c0,44.84757-34.606,82.41055-83.54936,82.41055-48.94638,0-83.09592-37.10685-83.09592-81.95471v-.45584c0-44.84786,34.603-82.41072,83.54942-82.41072m0-5.33036c-24.72682,0-47.42988,9.22565-63.92726,25.97755a87.3469,87.3469,0,0,0-24.9524,61.76353v.45584c0,23.49037,8.78112,45.344,24.72508,61.53543,16.35186,16.60494,38.97486,25.74952,63.70108,25.74952,24.72562,0,47.42808-9.22553,63.92606-25.97743a87.344,87.344,0,0,0,24.95354-61.76336v-.456c0-23.49019-8.78106-45.344-24.725-61.53532-16.35191-16.60488-38.97491-25.74975-63.70107-25.74975Z" fill="#fff"/>
          <path d="M316.3411,169.68252c31.6407,0,54.18071,25.72626,54.18071,56.68692v.45578c0,30.96065-22.08417,56.00191-53.72721,56.00191-31.64369,0-54.18078-25.49709-54.18078-56.45769v-.456c0-30.96066,22.08125-56.23091,53.72728-56.23091m0-5.33042a57.46989,57.46989,0,0,0-42.63374,18.20527c-10.591,11.38633-16.42378,26.78388-16.42378,43.35606v.456c0,16.56094,5.91756,32.00321,16.66276,43.48179a57.98836,57.98836,0,0,0,42.84826,18.30614c33.66853,0,59.05746-26.36691,59.05746-61.33215v-.45578a63.5566,63.5566,0,0,0-16.654-43.58576,57.85632,57.85632,0,0,0-42.857-18.43158Z" fill="#fff"/>
        </g>
        <path d="M86.84968,284.91653c-31.19742,0-53.77953-25.84087-53.77953-57.7358v-.46846c0-31.89493,22.8163-57.50406,53.77953-57.50406a58.29171,58.29171,0,0,1,11.95613,1.20339,8.13941,8.13941,0,0,0,9.90336-7.9052V145.05161A102.6662,102.6662,0,0,0,87.08376,142.899c-49.35707,0-84.04495,37.94911-84.04495,84.28173v.46342c0,46.796,35.38538,83.81327,82.879,83.81327a98.52756,98.52756,0,0,0,22.79137-2.4864V289.21415a6.05826,6.05826,0,0,0-7.52153-5.8323,63.32723,63.32723,0,0,1-14.338,1.53468" fill="#c70016"/>
        <path d="M85.91834,314.12231c-23.55685,0-45.27518-8.93418-61.15547-25.15928C9.0357,272.89345.37386,251.11665.37386,227.64392v-.46284c0-49.56813,37.27719-86.947,86.70978-86.947a104.7987,104.7987,0,0,1,22.18468,2.21138,2.66637,2.66637,0,0,1,2.10615,2.60635V162.5064A10.66423,10.66423,0,0,1,107.4228,170.82a10.92781,10.92781,0,0,1-9.16323,2.20085,55.97481,55.97481,0,0,0-11.40971-1.14772c-29.14012,0-51.11441,23.57551-51.11441,54.8393v.46869c0,31.39593,21.97429,55.07081,51.11441,55.07081a60.4628,60.4628,0,0,0,13.73791-1.46682,8.82566,8.82566,0,0,1,7.53516,1.68069,8.57286,8.57286,0,0,1,3.25154,6.74857v19.7571a2.66528,2.66528,0,0,1-2.0524,2.59356A100.64742,100.64742,0,0,1,85.91834,314.12231Zm1.1653-168.5586c-46.39372,0-81.38013,35.08811-81.38013,81.61737v.46284c0,22.07132,8.12187,42.5239,22.86963,57.59069,14.86805,15.19188,35.23418,23.55805,57.3452,23.55805a97.23572,97.23572,0,0,0,20.12649-1.95655V289.21433a3.23,3.23,0,0,0-1.2389-2.576,3.52288,3.52288,0,0,0-3.01782-.65924,65.7177,65.7177,0,0,1-14.93825,1.60242,54.27647,54.27647,0,0,1-40.55563-17.77484c-10.24673-11.21336-15.88848-26.35142-15.88848-42.62561v-.46869c0-16.23436,5.67565-31.33392,15.98313-42.51918a54.40068,54.40068,0,0,1,40.461-17.64982,61.23759,61.23759,0,0,1,12.50015,1.26,5.61568,5.61568,0,0,0,4.71136-1.12082,5.28611,5.28611,0,0,0,1.98346-4.17612V147.23273A101.35693,101.35693,0,0,0,87.08364,145.56371Z" fill="#fff"/>
        <g>
          <path d="M216.78386,283.301h-59.288V238.56048h41.88792a3.96727,3.96727,0,0,0,3.98378-4.24291c-.21925-2.68318-.33631-5.39386-.33631-8.13186,0-3.19653.15694-6.35318.451-9.46983a3.974,3.974,0,0,0-3.96883-4.33511H157.49585V169.07022h58.82207a7.60672,7.60672,0,0,0,6.15868-3.22888,104.01782,104.01782,0,0,1,12.58912-14.4576,4.93612,4.93612,0,0,0-3.43814-8.49071H142.976a14.75181,14.75181,0,0,0-14.75158,14.75158V294.72423a14.75225,14.75225,0,0,0,14.75158,14.754h87.84184a5.26586,5.26586,0,0,0,3.665-9.0537,103.8471,103.8471,0,0,1-12.27522-14.2732,6.67751,6.67751,0,0,0-5.42369-2.85029" fill="#c70016"/>
          <path d="M230.81838,312.14351H142.97607A17.4371,17.4371,0,0,1,125.56,294.724V157.64431a17.43492,17.43492,0,0,1,17.416-17.41611h88.65109a7.60116,7.60116,0,0,1,5.27942,13.0834A101.60663,101.60663,0,0,0,224.639,167.399a10.30975,10.30975,0,0,1-8.32056,4.33618H160.16067V209.716h39.353a6.63628,6.63628,0,0,1,6.62115,7.25c-.291,3.08908-.43825,6.19109-.43825,9.21937,0,2.59122.10983,5.25485.32723,7.9162a6.56627,6.56627,0,0,1-1.72045,4.96851,6.70692,6.70692,0,0,1-4.91937,2.15524H160.16067v39.41137h56.623a9.37593,9.37593,0,0,1,7.59357,3.96567,101.45449,101.45449,0,0,0,11.96019,13.90855,7.9308,7.9308,0,0,1-5.519,13.63268Zm-87.84231-166.5856a12.10012,12.10012,0,0,0-12.0864,12.0864V294.724a12.10163,12.10163,0,0,0,12.0864,12.08987h87.84231a2.60186,2.60186,0,0,0,1.8093-4.47645,106.79644,106.79644,0,0,1-12.59019-14.639,4.03583,4.03583,0,0,0-3.25387-1.73216H157.49585a2.66511,2.66511,0,0,1-2.66482-2.66482v-44.741a2.66517,2.66517,0,0,1,2.66482-2.66488H199.384a1.36314,1.36314,0,0,0,1.00046-.43826,1.2119,1.2119,0,0,0,.32609-.92333c-.22791-2.804-.34361-5.61371-.34361-8.34866,0-3.19426.15546-6.46337.46164-9.71957a1.28262,1.28262,0,0,0-.33076-.98647,1.31924,1.31924,0,0,0-.98413-.43366H157.49585a2.66511,2.66511,0,0,1-2.66482-2.66482V169.07034a2.66511,2.66511,0,0,1,2.66482-2.66482h58.8226a4.97274,4.97274,0,0,0,3.9949-2.1202,106.96925,106.96925,0,0,1,12.9127-14.82955,2.19389,2.19389,0,0,0,.5283-2.45562,2.24273,2.24273,0,0,0-2.12719-1.44224Z" fill="#fff"/>
        </g>
        <g>
          <path d="M85.91834,314.496c-23.65832,0-45.47189-8.97483-61.42273-25.27156C8.69926,273.08411,0,251.21422,0,227.644v-.463c0-49.78122,37.43766-87.32076,87.08346-87.32076a105.17322,105.17322,0,0,1,22.26319,2.21933,3.05684,3.05684,0,0,1,2.40151,2.972V162.5061a11.03882,11.03882,0,0,1-4.08985,8.60414,11.30064,11.30064,0,0,1-9.47491,2.27655,55.58179,55.58179,0,0,0-11.33348-1.14037c-28.927,0-50.74084,23.41545-50.74084,54.46573v.46887c0,31.18224,21.81381,54.697,50.74084,54.697a60.05221,60.05221,0,0,0,13.65379-1.45738,9.20064,9.20064,0,0,1,7.85151,1.7522,8.945,8.945,0,0,1,3.39294,7.04166v19.7568a3.02723,3.02723,0,0,1-2.34023,2.95738A101.0011,101.0011,0,0,1,85.91834,314.496Zm1.16512-173.88836C37.8639,140.60763.74737,177.826.74737,227.181v.463c0,23.374,8.62369,45.05766,24.28252,61.05723,15.8089,16.15192,37.433,25.04735,60.88845,25.04735a100.25962,100.25962,0,0,0,23.31764-2.54745,2.28219,2.28219,0,0,0,1.76481-2.22986v-19.7568a8.20227,8.20227,0,0,0-3.11038-6.45662,8.45728,8.45728,0,0,0-7.218-1.60918,60.79922,60.79922,0,0,1-13.82252,1.47669c-29.35321,0-51.48821-23.8359-51.48821-55.44438v-.46887c0-31.47652,22.135-55.2131,51.48821-55.2131A56.32854,56.32854,0,0,1,98.336,172.65514a10.56053,10.56053,0,0,0,8.85107-2.12528,10.29267,10.29267,0,0,0,3.81368-8.02376V145.05155a2.30523,2.30523,0,0,0-1.81121-2.241A104.42608,104.42608,0,0,0,87.08346,140.60763Z" fill="#c70016"/>
          <path d="M230.81844,312.51725H142.97619A17.81186,17.81186,0,0,1,125.18646,294.724V157.64413a17.81,17.81,0,0,1,17.78973-17.78973H231.6274a7.97507,7.97507,0,0,1,5.53753,13.72763,101.19911,101.19911,0,0,0-12.22237,14.03542,10.68383,10.68383,0,0,1-8.624,4.49122H160.53442v37.2336h38.97946a7.00969,7.00969,0,0,1,6.99316,7.6588c-.28992,3.07588-.43676,6.1658-.43676,9.18386,0,2.58542.10978,5.23858.32609,7.88595a6.93975,6.93975,0,0,1-1.8182,5.25257,7.08071,7.08071,0,0,1-5.19392,2.27541H160.53442V280.263h56.24926a9.75125,9.75125,0,0,1,7.89784,4.12219v.0006a101.16033,101.16033,0,0,0,11.91618,13.85671,8.30481,8.30481,0,0,1-5.77926,14.27476ZM142.97619,140.60177a17.06174,17.06174,0,0,0-17.04236,17.04236V294.724a17.06326,17.06326,0,0,0,17.04236,17.04588h87.84225a7.55758,7.55758,0,0,0,5.259-12.99137,101.819,101.819,0,0,1-12.00431-13.9589,9.003,9.003,0,0,0-7.28948-3.80925H159.78705V240.85149h39.5972a6.33209,6.33209,0,0,0,4.64446-2.03482,6.18914,6.18914,0,0,0,1.62263-4.68511c-.21776-2.66715-.32843-5.34076-.32843-7.94663,0-3.04144.148-6.15468.44023-9.25393a6.26328,6.26328,0,0,0-6.24926-6.84136H159.78705V171.3613h56.53152a9.933,9.933,0,0,0,8.01731-4.18061,101.93,101.93,0,0,1,12.31294-14.13928,7.2276,7.2276,0,0,0-5.02142-12.43964Z" fill="#c70016"/>
          <path d="M316.34116,314.3693c-24.8281,0-47.54551-9.18446-63.96726-25.86133-16.01356-16.26169-24.83252-38.20811-24.83252-61.79755V226.255A87.71834,87.71834,0,0,1,252.601,164.22918c16.568-16.824,39.3657-26.08907,64.1935-26.08907,24.82732,0,47.545,9.18446,63.96756,25.86133h0c16.01326,16.26169,24.83222,38.20871,24.83222,61.79755v.456a87.71443,87.71443,0,0,1-25.0608,62.02529C363.96529,305.10424,341.16788,314.3693,316.34116,314.3693Zm.45338-175.48182c-24.62583,0-47.2346,9.18625-63.661,25.866A86.97591,86.97591,0,0,0,228.28875,226.255v.45542c0,23.39154,8.74279,45.15225,24.6177,61.27326,16.2801,16.53319,38.80834,25.63825,63.43471,25.63825,24.625,0,47.23323-9.18619,63.65987-25.866A86.972,86.972,0,0,0,404.847,226.255v-.456c0-23.39148-8.74243-45.15219-24.61734-61.2732h0C363.94861,147.99254,341.42013,138.88748,316.79454,138.88748Zm0,144.31357a53.0803,53.0803,0,0,1-39.22932-16.737c-9.8825-10.55716-15.32484-24.79635-15.32484-40.09465v-.456c0-32.27,23.25838-56.60447,54.10078-56.60447a52.95038,52.95038,0,0,1,39.22907,16.852,58.6177,58.6177,0,0,1,15.32545,40.20849v.45542C370.89568,258.96469,347.63729,283.20105,316.79454,283.20105Zm-.45338-113.14472c-30.41646,0-53.35341,24.01329-53.35341,55.8571v.456c0,31.97343,23.132,56.08424,53.80679,56.08424,30.41651,0,53.35377-23.91523,53.35377-55.62882v-.45542C370.14831,194.79193,346.51331,170.05633,316.34116,170.05633Z" fill="#c70016"/>
        </g>
      </g>
    </g>
  </g>
</svg>
