<svg id="expo_logo" data-name="expo logo" xmlns="http://www.w3.org/2000/svg" width="116.689" height="100.645" viewBox="0 0 116.689 100.645">
  <g id="Group_2730" data-name="Group 2730">
    <path id="Path_8058" data-name="Path 8058" d="M0,18.5V40.588H25V34.962H11.877V31.836H25V26.418H11.877V24.126H25V18.5Z" transform="translate(0 20.049)" fill="#0a2240"/>
    <path id="Path_8059" data-name="Path 8059" d="M24.361,18.5H13.108l7.085,10.627L12.9,40.588H24.152l2.917-5.626,2.292,5.626H41.239L34.154,29.127,42.281,18.5H29.987l-2.917,5.626Z" transform="translate(13.98 20.049)" fill="#0a2240" fill-rule="evenodd"/>
    <path id="Path_8060" data-name="Path 8060" d="M44.87,18.5H28.2V40.589h10v-5H44.87c12.5-.208,12.5-17.3,0-17.087M41.953,30.17H38.41V23.71h3.751c4.376,0,4.584,6.043-.208,6.46" transform="translate(30.561 20.048)" fill="#0a2240" fill-rule="evenodd"/>
    <path id="Path_8061" data-name="Path 8061" d="M56.595,18.2c-8.127,0-14.795,5-14.795,11.669s6.668,12.086,14.795,12.086,14.795-5.418,14.795-12.086S64.721,18.2,56.595,18.2m4.167,12.086c-.208,3.334-1.875,5.626-4.376,5.626-2.292,0-4.167-2.292-4.167-5.834s1.875-6.251,4.167-6.251c2.5,0,4.584,3.126,4.376,6.46" transform="translate(45.3 19.724)" fill="#0a2240" fill-rule="evenodd"/>
    <path id="Path_8062" data-name="Path 8062" d="M52.818,0A50.571,50.571,0,0,1,99.91,32.506H5.725A50.571,50.571,0,0,1,52.818,0m47.718,66.471A50.353,50.353,0,0,1,5.1,66.263h95.435Z" transform="translate(5.527)" fill="#ec1c24" fill-rule="evenodd"/>
  </g>
</svg>
