<svg width="128" height="30" viewBox="0 0 128 30" fill="none" xmlns="http://www.w3.org/2000/svg">
<path d="M31.2442 23.6486V6.35128C31.2442 4.8648 30.8662 3.64858 30.2363 2.70264H48.504L52.1576 7.02696H39.9371V12.4324H44.8505V17.027H39.9371V23.3783H51.6537L48.504 27.2972H30.2363C30.3623 27.027 30.6143 26.6216 30.8662 25.9459C31.1182 25.2702 31.2442 24.4594 31.2442 23.6486Z" fill="#fff"/>
<path d="M30.9922 26.7567C31.1182 26.6215 31.1182 26.3513 31.2442 26.081C31.4961 25.4053 31.6221 24.5945 31.6221 23.6486V6.35127C31.6221 5.13505 31.3701 4.05397 30.9922 3.24316H48.252L51.0237 6.62154H39.3071V12.9729H44.2205V16.6215H39.3071V23.9188H50.5197L48.126 26.7567H30.9922Z" fill="#fff"/>
<path d="M79.4962 23.6486V6.35128C79.4962 4.8648 79.1182 3.64858 78.4883 2.70264H95.7481C97.6379 2.70264 99.1497 3.10804 100.284 3.78372C101.291 4.45939 101.921 5.81074 101.921 7.83777V13.3783C101.921 14.7296 101.669 15.8107 101.165 16.4864C100.662 17.2972 99.9056 17.7026 99.0237 17.9729C98.1418 18.2432 97.134 18.3783 95.8741 18.3783H88.3151V23.5134C88.3151 24.9999 88.693 26.2161 89.3229 27.1621H78.7403C78.8662 26.8918 79.1182 26.4864 79.3702 25.8107C79.4962 25.4053 79.4962 24.5945 79.4962 23.6486ZM88.1891 14.4594H92.5985C93.3544 14.4594 93.8584 14.3242 94.1103 14.1891C94.3623 14.054 94.6143 13.7837 94.7402 13.3783C94.8662 12.9729 94.8662 12.4324 94.8662 11.6215V9.05398C94.8662 8.24317 94.7403 7.70263 94.4883 7.29723C94.2363 6.89182 93.8584 6.75669 93.1025 6.75669H88.1891V14.4594Z" fill="#fff"/>
<path d="M79.3701 26.7567C79.4961 26.6215 79.4961 26.3513 79.6221 26.081C79.8741 25.4053 80 24.5945 80 23.5134V6.35127C80 5.13505 79.7481 4.05397 79.3701 3.24316H95.7481C97.6378 3.24316 99.0237 3.51343 100.032 4.18911C100.913 4.72965 101.417 6.081 101.417 7.83776V13.3783C101.417 14.5945 101.165 15.5405 100.787 16.2161C100.283 16.8918 99.7796 17.2972 98.8977 17.5675C98.0158 17.8378 97.0079 17.9729 95.874 17.9729H87.937V23.6486C87.937 24.8648 88.189 25.9459 88.567 26.7567H79.3701ZM87.8111 14.8648H92.7244C93.4803 14.8648 94.1103 14.7296 94.4882 14.5945C94.8662 14.3242 95.2441 13.9188 95.2441 13.5134C95.3701 13.108 95.3701 12.4323 95.3701 11.6215V9.05397C95.3701 8.10803 95.2441 7.43235 94.9922 7.02695C94.6142 6.62154 94.1103 6.35127 93.2284 6.35127H87.937V14.8648H87.8111Z" fill="#fff"/>
<path d="M108.976 2.70264H122.205C123.213 2.70264 124.095 2.83777 124.85 3.24318C125.606 3.51345 126.236 4.05399 126.614 4.72966C127.118 5.40534 127.496 6.08101 127.622 6.89183C127.874 7.70264 128 8.64858 128 9.72966V20.2702C128 21.3513 127.874 22.2972 127.748 23.108C127.622 23.9189 127.244 24.7297 126.74 25.2702C126.11 25.9459 125.48 26.4864 124.724 26.7567C123.969 27.027 123.087 27.2972 122.205 27.2972H108.976C106.961 27.2972 105.449 26.6216 104.567 25.4053C103.559 24.1891 103.181 22.4324 103.181 20.2702V9.72966C103.181 8.64858 103.307 7.70264 103.433 6.89183C103.559 6.08101 103.937 5.2702 104.441 4.72966C105.071 4.05399 105.701 3.51345 106.457 3.24318C107.213 2.97291 108.095 2.70264 108.976 2.70264ZM111.748 9.59453V20.2702C111.748 20.9459 111.748 21.6216 111.874 22.027C112 22.4324 112.126 22.7026 112.504 22.9729C112.882 23.108 113.386 23.2432 114.016 23.2432H117.165C117.795 23.2432 118.299 23.108 118.677 22.9729C119.055 22.8378 119.181 22.4324 119.307 22.027C119.433 21.6216 119.433 21.081 119.433 20.2702V9.59453C119.433 8.91885 119.433 8.24318 119.307 7.83777C119.181 7.43237 119.055 7.1621 118.677 6.89183C118.299 6.89183 117.795 6.75669 117.165 6.75669H114.016C113.386 6.75669 112.882 6.89183 112.504 7.02696C112.126 7.1621 112 7.5675 111.874 7.97291C111.874 8.37831 111.748 8.91885 111.748 9.59453Z" fill="#fff"/>
<path d="M108.976 26.7567C107.087 26.7567 105.701 26.2161 104.945 25.135C104.063 24.054 103.685 22.2972 103.685 20.2702V9.72964C103.685 8.64856 103.811 7.70262 103.937 7.02694C104.063 6.21613 104.441 5.67559 104.819 5.13505C105.323 4.59451 105.953 4.05397 106.709 3.7837C107.465 3.51343 108.22 3.3783 109.102 3.3783H122.205C123.213 3.3783 123.969 3.51343 124.724 3.7837C125.354 4.05397 125.984 4.45938 126.362 4.99992C126.74 5.54046 127.118 6.21613 127.37 7.02694C127.622 7.83775 127.622 8.7837 127.622 9.72964V20.2702C127.622 21.3513 127.496 22.2972 127.37 23.108C127.244 23.9188 126.866 24.4594 126.488 24.9999C125.984 25.5404 125.354 26.081 124.598 26.3513C123.843 26.6215 123.087 26.7567 122.205 26.7567H108.976ZM114.016 6.21613C113.26 6.21613 112.756 6.35127 112.252 6.62154C111.748 6.89181 111.496 7.29721 111.37 7.83775C111.244 8.24316 111.244 8.91883 111.244 9.59451V20.2702C111.244 21.081 111.244 21.6215 111.37 22.0269C111.496 22.5675 111.748 22.9729 112.252 23.2432C112.63 23.5134 113.26 23.6486 114.016 23.6486H117.165C117.921 23.6486 118.425 23.5134 118.929 23.2432C119.433 22.9729 119.685 22.5675 119.811 22.0269C119.937 21.6215 119.937 20.9459 119.937 20.2702V9.59451C119.937 8.7837 119.937 8.24316 119.811 7.83775C119.685 7.29721 119.433 6.89181 118.929 6.62154C118.425 6.35127 117.921 6.21613 117.165 6.21613H114.016Z" fill="#fff"/>
<path d="M6.4252 30C4.15748 30 2.64567 29.3243 1.6378 27.973C0.503937 26.4865 0 24.4595 0 21.8919V8.10811C0 6.75676 0.125984 5.54054 0.251968 4.59459C0.377953 3.64865 0.755905 2.83784 1.25984 2.2973C1.88976 1.62162 2.64567 1.08108 3.52756 0.675676C4.40945 0.135135 5.41732 0 6.4252 0H22.9291C24.4409 0 25.7008 0.27027 26.5827 0.945946C27.4646 1.62162 28.2205 2.43243 28.5984 3.64865C29.1024 4.86486 29.2283 6.35135 29.2283 8.10811V21.7568C29.2283 23.1081 29.1024 24.3243 28.9764 25.2703C28.8504 26.2162 28.4724 26.8919 27.9685 27.5676C27.3386 28.2432 26.5827 28.9189 25.7008 29.1892C24.8189 29.5946 23.811 29.7297 22.9291 29.7297H6.4252V30ZM12.7244 3.24324C11.7165 3.24324 10.9606 3.37838 10.4567 3.78378C9.82677 4.18919 9.44882 4.86486 9.19685 5.54054C9.07087 6.08108 8.94488 6.89189 8.94488 7.97297V22.027C8.94488 23.1081 9.07087 23.9189 9.19685 24.4595C9.32283 25.2703 9.82677 25.8108 10.4567 26.2162C10.9606 26.6216 11.7165 26.7568 12.7244 26.7568H16.5039C17.5118 26.7568 18.2677 26.6216 18.7717 26.2162C19.4016 25.8108 19.7795 25.1351 20.0315 24.4595C20.1575 23.9189 20.2835 23.1081 20.2835 22.027V7.97297C20.2835 6.89189 20.1575 6.08108 20.0315 5.54054C19.9055 4.72973 19.4016 4.18919 18.7717 3.78378C18.2677 3.37838 17.5118 3.24324 16.5039 3.24324H12.7244Z" fill="#fff"/>
<path d="M6.42516 29.4593C4.40942 29.4593 2.89761 28.7836 2.01572 27.5674C1.00784 26.2161 0.503906 24.3242 0.503906 21.7566V8.10797C0.503906 6.89175 0.629891 5.67554 0.755875 4.72959C0.881859 3.91878 1.25981 3.10797 1.63776 2.56743C2.26769 1.89176 2.89761 1.35122 3.7795 1.08095C4.66139 0.67554 5.54328 0.540405 6.42516 0.540405H22.9291C24.3149 0.540405 25.4488 0.810676 26.3307 1.48635C27.2126 2.02689 27.8425 2.8377 28.2204 3.91878C28.5984 5.135 28.8504 6.48635 28.8504 8.2431V21.8918C28.8504 23.2431 28.7244 24.3242 28.5984 25.4053C28.4724 26.2161 28.0945 26.8917 27.7165 27.5674C27.0866 28.2431 26.4567 28.7836 25.7008 29.0539C24.8189 29.4593 23.937 29.5944 23.0551 29.5944H6.42516V29.4593ZM12.7244 2.70257C11.7165 2.70257 10.8346 2.8377 10.2047 3.24311C9.44879 3.78365 8.94485 4.45932 8.69288 5.40527C8.5669 6.08094 8.44091 6.89175 8.44091 7.97284V22.0269C8.44091 23.108 8.5669 23.9188 8.69288 24.5945C8.94485 25.5404 9.44879 26.2161 10.2047 26.7566C10.8346 27.162 11.7165 27.2972 12.7244 27.2972H16.5039C17.5118 27.2972 18.3937 27.162 19.0236 26.7566C19.7795 26.3512 20.2834 25.5404 20.5354 24.5945C20.6614 23.9188 20.7874 23.108 20.7874 22.0269V7.97284C20.7874 6.89175 20.6614 6.08094 20.5354 5.40527C20.2834 4.45932 19.7795 3.78365 19.0236 3.24311C18.3937 2.97284 17.6378 2.70257 16.5039 2.70257H12.7244Z" fill="#fff"/>
<path d="M69.2914 14.9999L77.8584 27.4323H68.0316L63.8741 21.2161L69.2914 14.9999ZM57.0709 27.4323H50.6458L60.0946 15.9459L50.8977 2.70264H60.5985L65.3859 9.59452L71.3072 2.70264H77.6064L57.0709 27.4323Z" fill="#fff"/>
<path d="M68.2835 26.8918L64.504 21.2161L69.2914 15.6756L76.9764 26.8918H68.2835ZM51.6536 26.8918L60.7244 15.9459L51.7795 3.24316H60.3465L65.3858 10.4053L71.5591 3.24316H76.5984L56.8189 26.8918H51.6536Z" fill="#fff"/>
</svg>
